<?xml version="1.0" encoding="UTF-8" standalone="no"?>
<!-- Created with Inkscape (http://www.inkscape.org/) -->

<svg
   xmlns:dc="http://purl.org/dc/elements/1.1/"
   xmlns:cc="http://creativecommons.org/ns#"
   xmlns:rdf="http://www.w3.org/1999/02/22-rdf-syntax-ns#"
   xmlns:svg="http://www.w3.org/2000/svg"
   xmlns="http://www.w3.org/2000/svg"
   xmlns:sodipodi="http://sodipodi.sourceforge.net/DTD/sodipodi-0.dtd"
   xmlns:inkscape="http://www.inkscape.org/namespaces/inkscape"
   width="512"
   height="512"
   viewBox="0 0 511.99999 511.99999"
   id="svg4882"
   version="1.1"
   inkscape:version="0.91 r13725"
   sodipodi:docname="icon.svg"
   inkscape:export-filename="/Users/yasu/Documents/Programming/Java/packages/venndrawer/images/icon-24.png"
   inkscape:export-xdpi="4.21875"
   inkscape:export-ydpi="4.21875">
  <defs
     id="defs4884" />
  <sodipodi:namedview
     id="base"
     pagecolor="#ffffff"
     bordercolor="#666666"
     borderopacity="1.0"
     inkscape:pageopacity="0.0"
     inkscape:pageshadow="2"
     inkscape:zoom="1.2421875"
     inkscape:cx="256"
     inkscape:cy="256"
     inkscape:document-units="px"
     inkscape:current-layer="layer1"
     showgrid="false"
     units="px"
     inkscape:window-width="1440"
     inkscape:window-height="810"
     inkscape:window-x="0"
     inkscape:window-y="23"
     inkscape:window-maximized="0" />
  <metadata
     id="metadata4887">
    <rdf:RDF>
      <cc:Work
         rdf:about="">
        <dc:format>image/svg+xml</dc:format>
        <dc:type
           rdf:resource="http://purl.org/dc/dcmitype/StillImage" />
        <dc:title></dc:title>
      </cc:Work>
    </rdf:RDF>
  </metadata>
  <g
     inkscape:label="レイヤー 1"
     inkscape:groupmode="layer"
     id="layer1"
     transform="translate(0,-540.36219)">
    <g
       id="g5492"
       transform="matrix(1.1545877,0,0,1.1545877,-39.574439,-123.10776)">
      <path
         inkscape:connector-curvature="0"
         id="path4800-9-1"
         d="M 255.99955,607.06937 A 145.24174,145.24175 0 0 0 112.55936,730.69167 145.24174,145.24176 0 0 0 62.350481,840.41281 145.24174,145.24176 0 0 0 207.59176,985.655 a 145.24174,145.24176 0 0 0 48.43901,-8.4789 145.24174,145.24176 0 0 0 48.37655,8.4789 145.24174,145.24176 0 0 0 145.2422,-145.24219 145.24174,145.24176 0 0 0 -50.1247,-109.52543 145.24174,145.24175 0 0 0 -143.52527,-123.81801 z"
         style="fill:#ffffff;fill-opacity:1;stroke:#000000;stroke-width:6.77708817;stroke-linecap:round;stroke-linejoin:bevel;stroke-miterlimit:4;stroke-dasharray:none;stroke-opacity:1" />
      <g
         transform="matrix(0.48407774,0,0,0.48407774,-34.46511,702.77834)"
         id="g4827">
        <circle
           style="fill:#2ca9e1;fill-opacity:0.47058824;stroke:none;stroke-width:14;stroke-linecap:round;stroke-linejoin:bevel;stroke-miterlimit:4;stroke-dasharray:none;stroke-opacity:0"
           id="path4800"
           cx="600.03815"
           cy="102.32401"
           r="300.03809" />
        <circle
           style="fill:#eb6101;fill-opacity:0.47058824;stroke:none;stroke-width:14;stroke-linecap:round;stroke-linejoin:bevel;stroke-miterlimit:4;stroke-dasharray:none;stroke-opacity:0"
           id="path4800-1"
           cx="500.03815"
           cy="284.32397"
           r="300.03812" />
        <circle
           style="fill:#b8d200;fill-opacity:0.47058824;stroke:none;stroke-width:14;stroke-linecap:round;stroke-linejoin:bevel;stroke-miterlimit:4;stroke-dasharray:none;stroke-opacity:0"
           id="path4800-2"
           cx="700.03815"
           cy="284.32397"
           r="300.03812" />
      </g>
      <path
         inkscape:connector-curvature="0"
         id="path4800-9"
         d="m 255.99955,607.06934 a 145.24174,145.24175 0 0 0 -143.44019,123.6223 145.24174,145.24176 0 0 0 -50.208882,109.72114 145.24174,145.24176 0 0 0 145.241282,145.24225 145.24174,145.24176 0 0 0 48.43901,-8.47896 145.24174,145.24176 0 0 0 48.37655,8.47896 145.24174,145.24176 0 0 0 145.2422,-145.24225 145.24174,145.24176 0 0 0 -50.1247,-109.52543 145.24174,145.24175 0 0 0 -143.52527,-123.81801 z"
         style="fill:none;fill-opacity:0.47058824;stroke:#000000;stroke-width:6.77708817;stroke-linecap:round;stroke-linejoin:bevel;stroke-miterlimit:4;stroke-dasharray:none;stroke-opacity:1" />
    </g>
  </g>
</svg>
